<svg xmlns="http://www.w3.org/2000/svg" viewBox="0 0 37.4778 187.4735"><title>5745818</title><g id="OBJECTS"><rect x="-0.018" y="112.4642" width="37.4547" height="37.4547" fill="#0072ce"/><rect x="-0.018" y="75.0094" width="37.4547" height="37.4548" fill="#ccc"/><rect x="-0.018" y="37.5546" width="37.4547" height="37.4548" fill="#00c08b"/><polygon points="-0.018 112.464 18.709 131.191 -0.018 149.919 -0.018 112.464" fill="#00c08b"/><polygon points="18.768 119.486 30.474 131.191 18.768 142.897 18.768 119.486" fill="#00c08b"/><rect x="-0.018" y="149.9189" width="37.4547" height="37.4548" fill="#ff585d"/><rect x="-0.018" y="154.2553" width="37.4547" height="2.6326" fill="#ccc"/><rect x="-0.018" y="160.8193" width="37.4547" height="2.6326" fill="#ccc"/><rect x="-0.018" y="167.3833" width="37.4547" height="2.6326" fill="#ccc"/><rect x="-0.018" y="173.9472" width="37.4547" height="2.6326" fill="#ccc"/><rect x="-0.018" y="180.5112" width="37.4547" height="2.6326" fill="#ccc"/><path d="M2.0769,112.4642a37.4841,37.4841,0,0,0,35.36-35.36v-2.095H-.018v37.4548Z" fill="#ffb259"/><path d="M-.018,75.0094H37.4368V72.9736A37.4839,37.4839,0,0,0,.0116,37.5546l-.03.0008Z" fill="#fcf2f2"/><path d="M1.236,97.43A22.4382,22.4382,0,0,0,22.4027,76.2635V75.0094H-.018V97.43Z" fill="#fffcf8"/><path d="M-.018,75.0094H22.4027V73.7908A22.4382,22.4382,0,0,0,0,52.5886l-.0177.0005Z" fill="#ff585d"/><rect x="0.0411" y="0.0998" width="37.4548" height="37.4548" fill="#fcf2f2"/><path d="M8.4347,6.708a2.11,2.11,0,1,1-2.11-2.11A2.11,2.11,0,0,1,8.4347,6.708Z" fill="#ff585d"/><path d="M8.4347,14.7875a2.11,2.11,0,1,1-2.11-2.11A2.11,2.11,0,0,1,8.4347,14.7875Z" fill="#ff585d"/><path d="M8.4347,22.867a2.11,2.11,0,1,1-2.11-2.11A2.11,2.11,0,0,1,8.4347,22.867Z" fill="#ff585d"/><path d="M8.4347,30.9465a2.11,2.11,0,1,1-2.11-2.11A2.11,2.11,0,0,1,8.4347,30.9465Z" fill="#ff585d"/><path d="M16.6278,6.708a2.11,2.11,0,1,1-2.11-2.11A2.11,2.11,0,0,1,16.6278,6.708Z" fill="#ff585d"/><path d="M16.6278,14.7875a2.11,2.11,0,1,1-2.11-2.11A2.11,2.11,0,0,1,16.6278,14.7875Z" fill="#ff585d"/><path d="M16.6278,22.867a2.11,2.11,0,1,1-2.11-2.11A2.11,2.11,0,0,1,16.6278,22.867Z" fill="#ff585d"/><path d="M16.6278,30.9465a2.11,2.11,0,1,1-2.11-2.11A2.11,2.11,0,0,1,16.6278,30.9465Z" fill="#ff585d"/><path d="M24.8209,6.708a2.11,2.11,0,1,1-2.11-2.11A2.11,2.11,0,0,1,24.8209,6.708Z" fill="#ff585d"/><path d="M24.8209,14.7875a2.11,2.11,0,1,1-2.11-2.11A2.11,2.11,0,0,1,24.8209,14.7875Z" fill="#ff585d"/><path d="M24.8209,22.867a2.11,2.11,0,1,1-2.11-2.11A2.11,2.11,0,0,1,24.8209,22.867Z" fill="#ff585d"/><path d="M24.8209,30.9465a2.11,2.11,0,1,1-2.11-2.11A2.11,2.11,0,0,1,24.8209,30.9465Z" fill="#ff585d"/><path d="M33.014,6.708a2.11,2.11,0,1,1-2.11-2.11A2.11,2.11,0,0,1,33.014,6.708Z" fill="#ff585d"/><path d="M33.014,14.7875a2.11,2.11,0,1,1-2.11-2.11A2.11,2.11,0,0,1,33.014,14.7875Z" fill="#ff585d"/><path d="M33.014,22.867a2.11,2.11,0,1,1-2.11-2.11A2.11,2.11,0,0,1,33.014,22.867Z" fill="#ff585d"/><path d="M33.014,30.9465a2.11,2.11,0,1,1-2.11-2.11A2.11,2.11,0,0,1,33.014,30.9465Z" fill="#ff585d"/></g></svg>