<svg id="Layer_1" data-name="Layer 1" xmlns="http://www.w3.org/2000/svg" fill="#0072CE" viewBox="0 0 562.68713 579.8923"><defs><style>.cls-1{fill:#fff;}</style></defs><title>earn</title><path d="M316.70044,507.91626q-33.87286,0-67.74568.01837c-1.48924.00174-2.574-.1582-3.45479-1.68924q-33.11833-57.56629-66.38411-115.04761a3.35133,3.35133,0,0,1,.09058-3.84182c19.055-33.5571,48.18814-53.05658,85.79426-59.01331,31.39121-4.97232,59.71326,3.80875,84.34412,24.02139a84.29015,84.29015,0,0,1,6.95181,6.45478,6.08561,6.08561,0,0,0,4.81708,1.97433c20.16482-.0852,40.33014-.04529,60.49512-.1065,5.75314-.01746,11.01754,1.29626,15.68328,4.79211,7.01264,5.25424,9.79715,12.424,8.56754,20.83411-1.20486,8.24078-5.9462,14.27368-13.90778,17.148a28.85952,28.85952,0,0,1-9.50854,1.58468c-27.58124.1196-55.16324.0582-82.745.076-8.25079.00534-14.18881,3.78589-16.79507,10.583-4.27112,11.139,3.54532,22.45111,15.79355,22.74814,5.24682.12726,10.49893.04687,15.74862.0458,20.91559-.00415,41.8313-.06408,62.74668-.00512,14.781.04162,27.73154-4.63019,39.65594-13.45215,24.3053-17.98166,48.97748-35.46741,73.5-53.15552q12.2613-8.84409,24.53235-17.67462c8.70282-6.23828,18.8172-6.8458,26.93634-1.666a23.56241,23.56241,0,0,1,1.338,39.13642q-22.488,16.45019-45.09845,32.733c-26.01239,18.75253-51.96807,37.586-78.13519,56.12067a146.62034,146.62034,0,0,1-47.17258,22.36212A155.99,155.99,0,0,1,372.947,507.933c-18.74866.06086-37.49768.01532-56.24658.01532Z" transform="translate(-30.26189 -14.7985)"/><path d="M127.61671,594.6908c-7.82205-.35975-12.32576-3.26233-15.3805-8.616q-7.92473-13.88855-15.94575-27.72223-31.657-54.85913-63.31962-109.715c-4.19477-7.27151-3.49529-14.61285,1.94114-19.90341a19.443,19.443,0,0,1,3.82557-2.77484q38.0427-22.0567,76.11716-44.05856c9.89535-5.72324,18.51393-3.30689,24.248,6.63678q32.01475,55.518,64.09615,110.99768c4.83139,8.36615,9.70035,16.71127,14.45677,25.1199,5.25085,9.28284,2.8936,17.878-6.31131,23.19965q-38.17841,22.072-76.41451,44.04352C132.27132,593.41949,129.14459,594.12231,127.61671,594.6908Z" transform="translate(-30.26189 -14.7985)"/><circle cx="396.86565" cy="142" r="142"/><g id="Layer_1-2" data-name="Layer 1"><path class="cls-1" d="M474.41425,86.53766l-32.70621,48.538a3.47569,3.47569,0,0,0,5.21353,4.57052l32.18486-27.80549a1.286,1.286,0,0,1,2.15492.9732V200.21a1.30338,1.30338,0,0,1-2.29395.83417L381.64819,84.60865a16.6659,16.6659,0,0,0-12.721-6.01293h-3.38879a16.66592,16.66592,0,0,0-16.66592,16.66591h0V218.33569a16.66592,16.66592,0,0,0,16.66592,16.66591h0a16.66593,16.66593,0,0,0,14.19818-7.94194l32.70621-48.538a3.47569,3.47569,0,0,0-5.21353-4.57053l-32.18486,27.80549a1.286,1.286,0,0,1-2.15493-.97318V113.47423a1.30339,1.30339,0,0,1,2.294-.83417l97.31921,116.43549a16.66594,16.66594,0,0,0,12.73839,5.90867h3.47569a16.66592,16.66592,0,0,0,16.66591-16.66593h0V95.26163A16.66591,16.66591,0,0,0,488.717,78.59539l-.10459.00033h0A16.66591,16.66591,0,0,0,474.41425,86.53766Z" transform="translate(-30.26189 -14.7985)"/></g></svg>