<svg id="bold" enable-background="new 0 0 24 24" height="512"  fill="#FFB259" viewBox="0 0 24 24" width="512" xmlns="http://www.w3.org/2000/svg"><path d="m18.733 13.499c-.355.355-.353.931.004 1.288l.323.323c.059.059.06.156.001.215s-.155.059-.215-.001l-.753-.753c-.357-.357-.933-.358-1.288-.004-.355.355-.353.931.004 1.288l.753.753c.059.059.06.156.001.215s-.155.059-.215-.001l-1.184-1.184c-.357-.357-.933-.358-1.288-.004-.355.355-.353.931.004 1.288l1.184 1.184c.059.059.06.156.001.215s-.155.059-.215-.001l-4.197-4.197c-.357-.357-.933-.358-1.288-.004-.355.355-.353.931.004 1.288l5.051 5.051c-.662-.103-1.776-.147-2.46.536-.642.642-.625 1.086-.426 1.286.543.543.961-.315 3.435.867 2.474 1.183 4.064 1.085 5.151.016l1.498-1.498c.008-.008-.008.008 0 0 1.523-1.523 1.959-3.605.422-5.141-.003-.003-.005-.005-.008-.008l-3.013-3.013c-.355-.357-.931-.358-1.286-.004z"/><path d="m19 0h-16c-1.657 0-3 1.343-3 3s1.343 3 3 3h16c1.657 0 3-1.343 3-3s-1.343-3-3-3zm-16 4c-.552 0-1-.448-1-1s.448-1 1-1 1 .448 1 1-.448 1-1 1zm4 0c-.552 0-1-.448-1-1s.448-1 1-1 1 .448 1 1-.448 1-1 1z"/><path d="m19 8h-16c-1.66 0-3 1.34-3 3s1.34 3 3 3h5.2c.13-.48.39-.93.75-1.29 1.14-1.14 2.98-1.14 4.12 0l1.03 1.03c.33-.19.7-.31 1.08-.35.401-.534 1.099-.965 1.93-1.07.871-1.162 2.855-1.705 4.57.01.21-.4.32-.85.32-1.33 0-1.66-1.34-3-3-3zm-16 4c-.55 0-1-.45-1-1s.45-1 1-1 1 .45 1 1-.45 1-1 1zm4 0c-.55 0-1-.45-1-1s.45-1 1-1 1 .45 1 1-.45 1-1 1z"/><path d="m8.96 16.82c-.24-.24-.44-.52-.58-.82h-5.38c-1.66 0-3 1.34-3 3s1.34 3 3 3h7.41c0-1 .691-2.148 1.22-2.5zm-5.96 3.18c-.55 0-1-.45-1-1s.45-1 1-1 1 .45 1 1-.45 1-1 1zm4 0c-.55 0-1-.45-1-1s.45-1 1-1 1 .45 1 1-.45 1-1 1z"/></svg>